<?xml version="1.0" standalone="no"?><!DOCTYPE svg PUBLIC "-//W3C//DTD SVG 1.1//EN" "http://www.w3.org/Graphics/SVG/1.1/DTD/svg11.dtd"><svg t="1610887434477" class="icon" viewBox="0 0 1024 1024" version="1.1" xmlns="http://www.w3.org/2000/svg" p-id="1977" xmlns:xlink="http://www.w3.org/1999/xlink" width="200" height="200"><defs><style type="text/css"></style></defs><path d="M565.248 64l108.544 219.648c8.704 17.92 26.112 30.208 46.08 33.28l242.176 35.328c49.664 7.168 69.632 68.608 33.792 103.936l-175.104 171.008c-14.336 13.824-20.992 34.304-17.408 53.76l41.472 241.664c8.704 49.664-43.52 87.552-88.064 64l-216.576-114.176c-17.92-9.216-38.912-9.216-56.832 0l-216.576 114.176c-44.544 23.552-96.768-14.336-88.064-64L220.16 680.96c3.584-19.968-3.072-39.936-17.408-53.76L26.112 456.192c-35.84-35.328-16.384-96.768 33.792-103.936L302.08 316.928c19.968-3.072 36.864-15.36 46.08-33.28l108.544-219.648c21.504-45.568 86.016-45.568 108.544 0z" fill="#f4ea2a" p-id="1978"></path><path d="M509.44 865.28s-18.432 2.048-27.136 6.656l-216.576 114.176c-44.544 23.552-96.768-14.336-88.064-64l41.472-241.152c3.584-19.968-3.072-39.936-17.408-53.76L26.112 455.68c-35.84-35.328-16.384-96.768 33.792-103.936L302.08 316.416c19.968-3.072 36.864-15.36 45.568-33.28L455.68 64c19.456-33.792 53.248-33.792 53.248-33.792V865.28z" fill="#f4ea2a" p-id="1979"></path></svg>